<?xml version="1.0" standalone="no"?>
<!DOCTYPE svg PUBLIC "-//W3C//DTD SVG 20010904//EN"
 "http://www.w3.org/TR/2001/REC-SVG-20010904/DTD/svg10.dtd">
<svg version="1.0" xmlns="http://www.w3.org/2000/svg"
 width="700.000000pt" height="700.000000pt" viewBox="0 0 700.000000 700.000000"
 preserveAspectRatio="xMidYMid meet">
<metadata>
Created by potrace 1.11, written by Peter Selinger 2001-2013
</metadata>
<g transform="translate(0.000000,700.000000) scale(0.100000,-0.100000)"
fill="#000000" stroke="none">
<path d="M2759 6996 c-2 -2 -37 -6 -77 -10 -337 -28 -716 -179 -1015 -404 -90
-68 -287 -253 -342 -322 -139 -173 -221 -306 -301 -482 -24 -53 -46 -107 -49
-120 l-6 -23 178 2 c98 1 181 2 185 2 4 1 23 33 43 72 108 211 274 415 460
565 50 40 67 52 140 101 156 104 404 207 585 242 91 17 111 20 200 28 464 38
901 -98 1256 -390 60 -50 66 -52 126 -53 117 -2 305 -19 386 -34 23 -4 42 -4
42 0 0 12 -121 152 -194 225 -275 271 -601 455 -966 543 -69 17 -145 33 -170
36 -25 3 -56 9 -70 12 -27 6 -405 15 -411 10z"/>
<path d="M5765 6793 c-91 -11 -251 -49 -335 -80 -206 -77 -347 -168 -505 -327
-87 -88 -206 -241 -194 -249 2 -1 47 -13 99 -26 52 -13 128 -34 169 -47 l74
-23 70 75 c114 123 222 197 371 259 130 53 245 75 391 75 136 1 228 -16 357
-62 l88 -32 29 -71 c51 -123 71 -241 67 -400 -2 -77 -6 -151 -10 -165 -3 -14
-8 -36 -11 -49 -10 -54 -50 -160 -85 -231 -53 -106 -118 -192 -216 -286 -82
-78 -84 -82 -73 -110 6 -16 12 -36 15 -44 2 -8 13 -49 24 -90 20 -69 24 -87
35 -130 2 -8 4 -23 4 -33 1 -17 3 -17 34 -1 17 9 44 26 58 38 14 12 41 32 59
46 53 39 180 169 233 237 141 184 235 410 274 656 10 70 9 293 -3 375 -22 149
-71 306 -136 434 l-40 79 -93 44 c-117 57 -248 100 -367 121 -85 15 -310 25
-383 17z"/>
<path d="M2740 6299 c-25 -4 -60 -10 -77 -13 -18 -3 -48 -9 -65 -12 -45 -8
-173 -51 -228 -75 -199 -90 -359 -207 -493 -359 -62 -71 -148 -192 -141 -199
2 -3 97 -5 210 -5 l205 -1 42 38 c158 145 321 230 519 271 42 9 91 16 108 16
17 0 56 9 88 21 194 71 369 125 465 145 10 2 26 5 35 8 9 3 31 8 47 10 95 17
94 16 19 48 -191 81 -364 117 -564 115 -69 0 -145 -4 -170 -8z"/>
<path d="M5755 6090 c-123 -31 -221 -78 -283 -135 -15 -14 -30 -25 -33 -25 -4
0 -9 -7 -13 -15 -4 -11 14 -25 64 -50 38 -19 107 -57 154 -85 81 -48 88 -55
136 -136 28 -47 67 -118 87 -157 l36 -72 42 48 c23 27 48 61 56 75 7 15 18 34
25 42 17 21 60 147 69 200 13 74 13 176 1 242 -11 60 -12 63 -46 70 -73 18
-222 16 -295 -2z"/>
<path d="M3889 5856 c-2 -2 -38 -6 -79 -10 -118 -9 -322 -44 -420 -71 -30 -9
-62 -18 -70 -20 -31 -7 -186 -56 -205 -64 -11 -5 -60 -26 -110 -46 -642 -264
-1178 -792 -1466 -1446 -95 -217 -182 -534 -205 -744 -2 -16 -7 -61 -11 -100
-15 -144 -8 -469 13 -625 27 -194 108 -510 164 -635 4 -11 17 -40 26 -65 43
-108 159 -322 183 -339 82 -58 298 -157 485 -223 104 -36 135 -44 125 -31 -13
16 -69 80 -94 107 -34 36 -151 198 -201 278 -59 95 -151 269 -172 323 -6 17
-27 72 -46 123 -146 384 -186 839 -111 1260 145 816 712 1508 1485 1815 122
49 328 111 401 122 24 4 46 8 49 10 3 2 29 6 59 10 30 4 63 8 73 10 85 17 358
23 503 12 382 -30 762 -155 1090 -360 104 -65 245 -170 316 -235 31 -29 61
-52 67 -52 10 0 -37 145 -87 268 -31 77 -108 236 -147 302 -33 57 -34 57 -196
138 -299 148 -543 220 -933 277 -46 7 -480 17 -486 11z"/>
<path d="M3888 5165 c-2 -2 -32 -6 -68 -10 -36 -4 -67 -8 -70 -10 -3 -2 -26
-6 -50 -10 -312 -46 -703 -229 -960 -450 -417 -358 -674 -847 -728 -1384 -10
-95 -8 -335 2 -431 38 -350 183 -715 399 -1007 139 -187 374 -405 558 -515 54
-33 61 -34 145 -32 85 2 223 10 309 19 162 17 403 74 314 75 -89 1 -347 97
-539 202 -34 18 -152 99 -168 115 -7 7 -17 13 -22 13 -5 0 -65 55 -133 122
-114 113 -220 239 -261 313 -9 17 -26 46 -38 65 -74 122 -165 357 -193 499
-48 241 -48 492 1 721 16 78 56 213 79 265 111 262 206 406 385 586 118 118
155 149 279 232 190 127 471 235 681 262 176 22 282 25 435 11 204 -20 376
-68 572 -161 471 -224 813 -647 936 -1160 l24 -98 13 64 c7 35 15 73 17 84 38
215 46 297 47 485 l1 135 -52 76 c-223 328 -516 578 -868 741 -84 39 -214 88
-275 104 -160 41 -150 39 -240 54 -41 6 -86 14 -100 17 -27 6 -427 13 -432 8z"/>
<path d="M6164 4561 c3 -4 8 -34 12 -66 3 -32 8 -68 10 -79 4 -24 14 -168 18
-272 2 -58 7 -76 25 -95 112 -118 249 -346 314 -524 142 -387 148 -778 17
-1165 -144 -426 -455 -782 -862 -987 l-68 -34 0 -184 c0 -102 2 -185 5 -185 2
0 48 19 102 42 653 280 1105 851 1234 1558 24 134 32 433 16 578 -62 534 -330
1028 -745 1370 -57 47 -92 67 -78 43z"/>
<path d="M4066 4444 c37 -87 63 -242 62 -367 0 -346 -148 -636 -428 -841 -169
-124 -373 -189 -595 -190 -139 0 -229 13 -339 51 -38 12 -71 23 -73 23 -11 0
12 -223 32 -320 2 -8 4 -19 4 -25 3 -32 62 -52 211 -70 63 -8 283 -8 320 0 13
2 42 7 65 11 315 45 633 232 851 499 152 186 261 446 291 691 20 158 -1 447
-37 514 -9 18 -24 22 -150 45 -19 3 -79 9 -133 12 l-97 6 16 -39z"/>
<path d="M4816 4233 c10 -76 3 -350 -11 -403 -2 -8 -7 -35 -10 -60 -26 -186
-131 -451 -254 -637 -327 -498 -869 -785 -1472 -779 l-156 1 15 -25 c33 -52
125 -162 185 -219 108 -103 107 -103 184 -96 350 34 699 164 998 373 44 30 82
58 85 61 3 3 39 35 80 71 102 89 170 161 284 301 101 123 244 387 305 563 53
151 94 329 106 466 4 36 8 70 10 77 5 16 -56 92 -131 164 -61 59 -200 169
-214 169 -4 0 -6 -12 -4 -27z"/>
<path d="M6158 3525 c-3 -6 -9 -26 -12 -45 -18 -117 -79 -334 -140 -499 -25
-66 -46 -143 -49 -177 -21 -217 -125 -438 -284 -605 l-43 -45 2 -213 3 -212
90 63 c280 194 485 508 556 848 18 87 21 116 24 255 4 172 -17 311 -71 475
-25 74 -70 165 -76 155z"/>
<path d="M906 3405 c-392 -140 -699 -448 -840 -844 -31 -87 -69 -251 -60 -260
3 -3 82 -6 174 -7 l169 0 6 25 c4 14 8 33 10 41 11 50 48 147 80 211 99 195
264 361 459 458 67 34 71 38 72 71 0 19 4 101 7 183 4 81 3 147 -1 147 -4 -1
-38 -12 -76 -25z"/>
<path d="M5399 3343 c-21 -78 -95 -258 -151 -367 -115 -225 -250 -409 -442
-602 -282 -282 -567 -460 -946 -589 l-94 -32 74 -13 c84 -15 323 -19 415 -7
497 62 932 408 1111 884 25 66 51 155 60 203 2 14 6 34 9 45 23 103 23 343 0
460 -2 11 -4 30 -4 43 -2 37 -18 25 -32 -25z"/>
<path d="M934 2640 c-54 -43 -154 -157 -154 -175 0 -4 -8 -19 -18 -33 -19 -27
-52 -109 -52 -128 0 -7 64 -10 183 -10 l182 1 -1 25 c-1 14 -16 90 -33 170
-17 80 -31 157 -31 173 0 15 -3 27 -7 27 -5 -1 -35 -23 -69 -50z"/>
<path d="M2295 895 c-1 -166 1 -185 16 -185 22 0 175 77 207 104 73 61 105 93
138 138 20 27 35 50 33 52 -2 2 -40 9 -84 15 -44 7 -118 21 -165 32 -47 11
-99 22 -115 25 l-30 4 0 -185z"/>
<path d="M3317 983 c-2 -1 -59 -4 -126 -5 l-123 -2 -30 -60 c-92 -184 -240
-342 -414 -444 -63 -37 -211 -96 -279 -111 l-50 -12 0 -172 c0 -165 1 -172 20
-171 49 1 200 38 260 63 11 5 45 19 75 31 195 78 422 256 557 434 91 122 191
319 219 429 l6 28 -56 -2 c-31 -1 -58 -4 -59 -6z"/>
</g>
</svg>
